<?xml version="1.0" encoding="utf-8"?>
<!-- Generator: Adobe Illustrator 29.1.0, SVG Export Plug-In . SVG Version: 9.03 Build 55587)  -->
<svg version="1.1" baseProfile="basic" id="Layer_1"
	 xmlns="http://www.w3.org/2000/svg" xmlns:xlink="http://www.w3.org/1999/xlink" x="0px" y="0px" width="683.44px" height="150px"
	 viewBox="0 0 683.44 150" xml:space="preserve">
<style type="text/css">
	.st0{fill:#FFFFFF;}
</style>
<path class="st0" d="M362.23,2.23c-25.5,0-46.24,32.65-46.24,72.77s20.74,72.77,46.24,72.77c25.5,0,46.24-32.65,46.24-72.77
	S387.73,2.23,362.23,2.23z M362.23,72.75c7.67,0,13.92,12.13,13.92,27.03c0,14.65-6.37,27.02-13.92,27.02s-13.92-12.37-13.92-27.02
	C348.31,84.88,354.55,72.75,362.23,72.75z M332.25,73.47l0.04-1.58c0.01-0.41,0.02-0.83,0.04-1.3l0-0.06l0.07-1.39l0-0.03l0.1-1.42
	l0-0.05l0.94-8.35c0.05-0.34,0.1-0.67,0.15-1l0.08-0.09v-0.38l0.15-0.84l0.08-0.09v-0.37l0.08-0.45c0.02-0.14,0.05-0.27,0.07-0.4
	l0.09-0.11v-0.33l0.32-1.54c0.05-0.23,0.1-0.46,0.15-0.69l0.09-0.11v-0.29c0.06-0.27,0.12-0.54,0.19-0.83l0.11-0.11v-0.34
	c0.04-0.16,0.08-0.32,0.12-0.48l0.08-0.31l0.12-0.13v-0.33c0.08-0.32,0.17-0.65,0.26-0.97l0.13-0.48l0.28-0.01v-0.9l0.23-0.83
	l0.14-0.15l0.01-0.35c0.08-0.25,0.16-0.5,0.24-0.75l0.12-0.29l0.01-0.12c0.1-0.32,0.2-0.62,0.28-0.84l1.2-3.23l0.18-0.18v-0.23
	l0.1-0.27c0.07-0.18,0.14-0.35,0.2-0.49l0.17-0.35V39.6c0.05-0.12,0.1-0.24,0.16-0.37l0.3-0.66v-0.02c0.09-0.2,0.18-0.41,0.27-0.61
	l0.29-0.6c0.1-0.21,0.19-0.41,0.3-0.61l0.43-0.86l0.21-0.22v-0.19l0.3-0.58l0.23-0.24v-0.17l0.09-0.15
	c0.09-0.16,0.18-0.32,0.27-0.47l0.16-0.3c0.1-0.17,0.2-0.35,0.31-0.55l0.11-0.17c0.15-0.25,0.29-0.5,0.45-0.74l0.25-0.27v-0.14
	c0.11-0.17,0.22-0.34,0.33-0.5l0.07-0.11c0.17-0.26,0.33-0.5,0.49-0.74l0.26-0.26v-0.13c0.1-0.15,0.2-0.27,0.26-0.37l0.69-0.93
	c0.19-0.24,0.38-0.49,0.58-0.73l0.26-0.33v0c0.05-0.06,0.1-0.12,0.14-0.17l0.85-1c0.19-0.21,0.38-0.42,0.63-0.67l0.24-0.25
	c0.12-0.12,0.23-0.24,0.36-0.37l0.36-0.35v-0.01c0.1-0.09,0.19-0.18,0.3-0.28l0.05-0.05c0.1-0.09,0.19-0.18,0.28-0.27l0.33-0.29
	c0.21-0.19,0.43-0.38,0.66-0.57c0.21-0.18,0.43-0.35,0.64-0.52l0.23-0.18c0.14-0.11,0.28-0.21,0.42-0.31l0.13-0.1
	c0.13-0.09,0.26-0.18,0.39-0.27l0.87-0.58c0.15-0.09,0.3-0.18,0.45-0.27l0.16,0l0.24-0.23c0.1-0.06,0.21-0.12,0.32-0.18l0.28-0.15
	c0.21-0.12,0.43-0.22,0.65-0.32l0.15-0.08c0.07-0.03,0.14-0.06,0.21-0.09l0.37-0.16c0.23-0.1,0.47-0.19,0.68-0.28l0.73-0.26
	c0.19-0.06,0.38-0.12,0.57-0.18l0.2-0.06c0.15-0.05,0.3-0.09,0.45-0.12l0.3-0.07c0.18-0.04,0.37-0.08,0.55-0.12l0.12-0.02
	c0.23-0.04,0.47-0.09,0.72-0.12c0.25-0.03,0.49-0.07,0.75-0.09c0.25-0.02,0.49-0.04,0.75-0.05c0.48-0.02,0.98-0.02,1.52,0
	c0.25,0.01,0.48,0.03,0.75,0.05c0.25,0.02,0.49,0.05,0.72,0.09l0.09,0.01c0.19,0.03,0.38,0.06,0.65,0.11
	c0.21,0.04,0.43,0.09,0.69,0.14l0.77,0.21c0.24,0.07,0.49,0.14,0.68,0.2l0.76,0.28l1.42,0.61c0.23,0.1,0.45,0.22,0.68,0.34
	l0.05,0.02c0.22,0.12,0.43,0.23,0.64,0.35l0.22,0.13c0.12,0.07,0.24,0.14,0.36,0.21l0.33,0.21c0.16,0.1,0.31,0.2,0.49,0.32
	c0.16,0.11,0.31,0.22,0.47,0.33l0.38,0.28c0.16,0.12,0.32,0.24,0.4,0.29l0.19,0.16c0.18,0.14,0.36,0.29,0.49,0.39l0.1,0.09
	c0.14,0.11,0.29,0.24,0.43,0.36l0.22,0.19c0.21,0.19,0.42,0.39,0.63,0.59c0.22,0.21,0.43,0.42,0.66,0.65
	c0.2,0.2,0.41,0.41,0.63,0.65c0.21,0.22,0.42,0.44,0.61,0.65l0.63,0.74c0.12,0.14,0.23,0.28,0.35,0.42l0.26,0.33
	c0.19,0.23,0.37,0.46,0.6,0.76c0.2,0.26,0.38,0.51,0.59,0.8c0.2,0.26,0.38,0.54,0.58,0.83c0.12,0.18,0.25,0.36,0.37,0.55l0.8,1.25
	c0.16,0.26,0.32,0.53,0.48,0.79l0.2,0.34c0.06,0.11,0.13,0.21,0.19,0.32l0.16,0.3c0.1,0.17,0.2,0.35,0.3,0.53l0.72,1.35
	c0.17,0.32,0.34,0.66,0.5,1.01l0.48,1.02c0.12,0.25,0.23,0.49,0.34,0.73l0.14,0.31c0.13,0.27,0.24,0.54,0.36,0.82l0.27,0.63
	c0.09,0.22,0.19,0.45,0.27,0.65c0.07,0.19,0.15,0.38,0.22,0.57l0.64,1.7c0.08,0.2,0.15,0.41,0.22,0.62l0.2,0.58
	c0.12,0.33,0.22,0.67,0.36,1.09l0.33,1l0.01,0.32l0.13,0.13l0.07,0.24c0.07,0.23,0.13,0.45,0.21,0.73c0.08,0.25,0.15,0.5,0.22,0.76
	l0.15,0.53c0.1,0.37,0.2,0.74,0.3,1.13l0.62,2.54c0.1,0.41,0.19,0.83,0.28,1.27l0.75,3.96c0.07,0.41,0.14,0.84,0.21,1.33l0.29,2.03
	l0.4,3.64l0.02,0.05c0.04,0.38,0.07,0.77,0.09,1.15l0.12,1.62c0.03,0.43,0.06,0.86,0.08,1.29l0.07,1.45
	c0.02,0.48,0.03,0.96,0.05,1.47c0.02,0.32,0.02,0.65,0.03,0.97l0.01,0.49c0.01,0.49,0.01,0.97,0.01,1.46c0,0.49,0,0.97-0.01,1.46
	l-0.01,0.49c-0.01,0.32-0.01,0.65-0.03,0.97l0,0.06c-0.01,0.47-0.02,0.94-0.04,1.41l-0.07,1.46c-0.02,0.43-0.05,0.86-0.08,1.3
	l-0.12,1.61c-0.03,0.39-0.06,0.78-0.1,1.17l-0.09,0.83c-3.01-19.34-15.07-33.84-29.44-33.84c-14.38,0-26.44,14.5-29.44,33.85
	l-0.06-0.79l-0.02-0.04l-0.37-5.59c-0.02-0.42-0.03-0.84-0.04-1.36l-0.03-1.56c-0.01-0.44-0.01-0.89-0.01-1.34v-0.14
	c0-0.45,0-0.9,0.01-1.37L332.25,73.47z"/>
<path class="st0" d="M92.69,37.29c0,1.74-0.08,3.22-0.22,4.45c-0.15,1.23-0.37,2.22-0.67,2.97c-0.3,0.75-0.67,1.3-1.12,1.66
	c-0.45,0.36-0.94,0.54-1.48,0.54H60.07v93.73c0,0.6-0.2,1.14-0.58,1.62c-0.39,0.48-1.03,0.87-1.93,1.17
	c-0.9,0.3-2.11,0.54-3.64,0.72c-1.53,0.18-3.43,0.27-5.71,0.27c-2.28,0-4.18-0.09-5.71-0.27c-1.53-0.18-2.74-0.42-3.64-0.72
	c-0.9-0.3-1.54-0.69-1.93-1.17c-0.39-0.48-0.58-1.02-0.58-1.62V46.9H7.23c-0.6,0-1.11-0.18-1.53-0.54C5.28,46,4.92,45.45,4.62,44.7
	c-0.3-0.75-0.53-1.74-0.67-2.97c-0.15-1.23-0.22-2.71-0.22-4.45c0-1.8,0.07-3.33,0.22-4.58c0.15-1.26,0.37-2.26,0.67-3.01
	c0.3-0.75,0.66-1.29,1.08-1.62c0.42-0.33,0.93-0.49,1.53-0.49h81.96c0.54,0,1.03,0.17,1.48,0.49c0.45,0.33,0.82,0.87,1.12,1.62
	c0.3,0.75,0.52,1.75,0.67,3.01C92.62,33.96,92.69,35.49,92.69,37.29z"/>
<path class="st0" d="M163.24,98.4c0,2.76-0.62,4.79-1.84,6.11c-1.23,1.32-2.92,1.98-5.08,1.98h-48.8c0,3.42,0.4,6.52,1.21,9.3
	c0.81,2.79,2.1,5.15,3.86,7.1c1.77,1.95,4.04,3.43,6.83,4.45c2.79,1.02,6.13,1.53,10.02,1.53c3.95,0,7.43-0.28,10.42-0.85
	c3-0.57,5.59-1.2,7.77-1.89c2.19-0.69,4-1.32,5.44-1.89c1.44-0.57,2.61-0.85,3.51-0.85c0.54,0,0.99,0.11,1.35,0.31
	c0.36,0.21,0.66,0.58,0.9,1.12c0.24,0.54,0.4,1.3,0.49,2.29c0.09,0.99,0.13,2.23,0.13,3.73c0,1.32-0.03,2.44-0.09,3.37
	c-0.06,0.93-0.15,1.72-0.27,2.38c-0.12,0.66-0.3,1.21-0.54,1.66c-0.24,0.45-0.55,0.88-0.94,1.3c-0.39,0.42-1.45,0.99-3.19,1.71
	c-1.74,0.72-3.95,1.42-6.65,2.11c-2.7,0.69-5.78,1.29-9.26,1.8c-3.48,0.51-7.19,0.76-11.14,0.76c-7.13,0-13.38-0.9-18.74-2.7
	c-5.36-1.8-9.84-4.52-13.44-8.18c-3.6-3.65-6.28-8.27-8.04-13.84c-1.77-5.57-2.65-12.1-2.65-19.59c0-7.13,0.93-13.55,2.79-19.28
	c1.86-5.72,4.55-10.57,8.09-14.56c3.53-3.98,7.83-7.02,12.9-9.12c5.06-2.1,10.77-3.14,17.12-3.14c6.71,0,12.45,0.99,17.21,2.97
	c4.76,1.98,8.67,4.72,11.73,8.22c3.06,3.51,5.3,7.65,6.74,12.45c1.44,4.79,2.16,10.01,2.16,15.64V98.4z M141.31,91.93
	c0.18-6.35-1.09-11.34-3.82-14.96c-2.73-3.62-6.94-5.44-12.63-5.44c-2.88,0-5.38,0.54-7.5,1.62c-2.13,1.08-3.9,2.53-5.3,4.36
	c-1.41,1.83-2.49,3.99-3.24,6.47c-0.75,2.49-1.18,5.14-1.3,7.95H141.31z"/>
<path class="st0" d="M242.51,128.05c0,1.56-0.04,2.86-0.13,3.91c-0.09,1.05-0.21,1.93-0.36,2.65c-0.15,0.72-0.33,1.3-0.54,1.75
	c-0.21,0.45-0.67,1.02-1.39,1.71c-0.72,0.69-1.95,1.53-3.68,2.52c-1.74,0.99-3.72,1.87-5.93,2.65c-2.22,0.78-4.63,1.41-7.23,1.89
	c-2.61,0.48-5.29,0.72-8.04,0.72c-6.17,0-11.64-0.96-16.4-2.88c-4.76-1.92-8.76-4.75-12-8.49c-3.24-3.74-5.68-8.31-7.32-13.71
	c-1.65-5.39-2.47-11.56-2.47-18.51c0-8.03,1-14.96,3.01-20.8c2.01-5.84,4.81-10.68,8.4-14.51c3.6-3.83,7.85-6.68,12.76-8.54
	c4.91-1.86,10.3-2.79,16.18-2.79c2.4,0,4.75,0.21,7.06,0.63c2.31,0.42,4.46,0.99,6.47,1.71c2.01,0.72,3.8,1.53,5.39,2.43
	c1.59,0.9,2.71,1.68,3.37,2.34c0.66,0.66,1.12,1.21,1.39,1.66c0.27,0.45,0.48,1.03,0.63,1.75c0.15,0.72,0.27,1.6,0.36,2.65
	c0.09,1.05,0.13,2.32,0.13,3.82c0,3.48-0.3,5.92-0.9,7.32c-0.6,1.41-1.38,2.11-2.34,2.11c-1.02,0-2.1-0.42-3.24-1.26
	c-1.14-0.84-2.49-1.77-4.04-2.79c-1.56-1.02-3.42-1.95-5.57-2.79c-2.16-0.84-4.73-1.26-7.73-1.26c-5.87,0-10.37,2.26-13.48,6.79
	c-3.12,4.52-4.67,11.16-4.67,19.91c0,4.31,0.39,8.12,1.17,11.41c0.78,3.3,1.93,6.05,3.46,8.27c1.53,2.22,3.44,3.88,5.75,4.99
	c2.31,1.11,4.99,1.66,8.04,1.66c3.11,0,5.8-0.46,8.04-1.39c2.25-0.93,4.21-1.96,5.89-3.1c1.68-1.14,3.09-2.17,4.22-3.1
	c1.14-0.93,2.1-1.39,2.88-1.39c0.54,0,0.99,0.15,1.35,0.45c0.36,0.3,0.64,0.85,0.85,1.66c0.21,0.81,0.37,1.84,0.49,3.1
	C242.45,124.46,242.51,126.08,242.51,128.05z"/>
<path class="st0" d="M306.31,132.91c0,2.64-0.17,4.66-0.49,6.07c-0.33,1.41-0.76,2.4-1.3,2.96c-0.54,0.57-1.33,1.08-2.38,1.53
	c-1.05,0.45-2.28,0.84-3.68,1.17c-1.41,0.33-2.94,0.58-4.58,0.76c-1.65,0.18-3.31,0.27-4.99,0.27c-4.49,0-8.39-0.57-11.68-1.71
	c-3.3-1.14-6.02-2.89-8.18-5.26c-2.16-2.37-3.75-5.35-4.76-8.94c-1.02-3.6-1.53-7.85-1.53-12.76V75.93h-9.62
	c-1.14,0-2.01-0.7-2.61-2.11c-0.6-1.41-0.9-3.76-0.9-7.06c0-1.74,0.07-3.2,0.22-4.4c0.15-1.2,0.37-2.14,0.67-2.83
	c0.3-0.69,0.67-1.18,1.12-1.48c0.45-0.3,0.97-0.45,1.57-0.45h9.53V39.71c0-0.6,0.16-1.14,0.49-1.62c0.33-0.48,0.93-0.88,1.8-1.21
	c0.87-0.33,2.04-0.57,3.5-0.72c1.47-0.15,3.28-0.22,5.44-0.22c2.22,0,4.06,0.08,5.53,0.22c1.47,0.15,2.62,0.39,3.46,0.72
	c0.84,0.33,1.44,0.73,1.8,1.21c0.36,0.48,0.54,1.02,0.54,1.62V57.6h17.43c0.6,0,1.12,0.15,1.57,0.45c0.45,0.3,0.82,0.79,1.12,1.48
	c0.3,0.69,0.52,1.63,0.67,2.83c0.15,1.2,0.22,2.67,0.22,4.4c0,3.3-0.3,5.65-0.9,7.06c-0.6,1.41-1.47,2.11-2.61,2.11h-17.52v37.66
	c0,4.37,0.69,7.65,2.07,9.84c1.38,2.19,3.83,3.28,7.37,3.28c1.2,0,2.28-0.1,3.24-0.31c0.96-0.21,1.81-0.45,2.56-0.72
	c0.75-0.27,1.38-0.51,1.89-0.72c0.51-0.21,0.97-0.31,1.39-0.31c0.36,0,0.7,0.1,1.03,0.31c0.33,0.21,0.58,0.63,0.76,1.26
	c0.18,0.63,0.34,1.48,0.49,2.56C306.24,129.85,306.31,131.23,306.31,132.91z"/>
<path class="st0" d="M496.39,140.82c0,0.6-0.18,1.12-0.54,1.57c-0.36,0.45-0.96,0.82-1.8,1.12c-0.84,0.3-1.99,0.52-3.46,0.67
	c-1.47,0.15-3.28,0.22-5.44,0.22c-2.22,0-4.06-0.08-5.53-0.22c-1.47-0.15-2.62-0.37-3.46-0.67c-0.84-0.3-1.44-0.67-1.8-1.12
	c-0.36-0.45-0.54-0.97-0.54-1.57V95.07c0-3.89-0.29-6.95-0.85-9.17c-0.57-2.22-1.39-4.12-2.47-5.71c-1.08-1.59-2.47-2.82-4.18-3.68
	c-1.71-0.87-3.7-1.3-5.98-1.3c-2.88,0-5.78,1.05-8.72,3.15s-5.99,5.15-9.17,9.17v53.29c0,0.6-0.18,1.12-0.54,1.57
	c-0.36,0.45-0.97,0.82-1.84,1.12c-0.87,0.3-2.02,0.52-3.46,0.67c-1.44,0.15-3.27,0.22-5.48,0.22c-2.22,0-4.04-0.08-5.48-0.22
	c-1.44-0.15-2.59-0.37-3.46-0.67c-0.87-0.3-1.48-0.67-1.84-1.12c-0.36-0.45-0.54-0.97-0.54-1.57V60.65c0-0.6,0.15-1.12,0.45-1.57
	c0.3-0.45,0.84-0.82,1.62-1.12c0.78-0.3,1.78-0.52,3.01-0.67c1.23-0.15,2.77-0.22,4.63-0.22c1.92,0,3.5,0.08,4.76,0.22
	c1.26,0.15,2.23,0.38,2.92,0.67c0.69,0.3,1.18,0.67,1.48,1.12c0.3,0.45,0.45,0.97,0.45,1.57v9.26c4.43-4.79,8.94-8.39,13.53-10.78
	c4.58-2.4,9.36-3.59,14.33-3.59c5.45,0,10.05,0.9,13.79,2.7c3.74,1.8,6.77,4.24,9.08,7.32c2.31,3.09,3.97,6.7,4.99,10.83
	c1.02,4.13,1.53,9.11,1.53,14.92V140.82z"/>
<path class="st0" d="M586.89,141.09c0,0.84-0.3,1.5-0.9,1.98c-0.6,0.48-1.54,0.82-2.83,1.03c-1.29,0.21-3.19,0.31-5.71,0.31
	c-2.7,0-4.66-0.11-5.89-0.31c-1.23-0.21-2.1-0.55-2.61-1.03c-0.51-0.48-0.76-1.14-0.76-1.98v-6.38c-3.3,3.54-7.06,6.29-11.28,8.27
	c-4.22,1.98-8.91,2.96-14.06,2.96c-4.25,0-8.16-0.55-11.73-1.66c-3.57-1.11-6.65-2.76-9.26-4.94c-2.61-2.19-4.63-4.9-6.07-8.13
	c-1.44-3.24-2.16-7.01-2.16-11.32c0-4.67,0.91-8.73,2.74-12.18c1.83-3.44,4.55-6.29,8.18-8.54c3.62-2.25,8.13-3.91,13.53-4.99
	c5.39-1.08,11.65-1.62,18.78-1.62h7.82V87.7c0-2.52-0.26-4.72-0.76-6.61c-0.51-1.89-1.35-3.46-2.52-4.72
	c-1.17-1.26-2.73-2.19-4.67-2.79c-1.95-0.6-4.36-0.9-7.24-0.9c-3.77,0-7.15,0.42-10.11,1.26c-2.97,0.84-5.59,1.77-7.86,2.79
	c-2.28,1.02-4.18,1.95-5.71,2.79c-1.53,0.84-2.77,1.26-3.73,1.26c-0.66,0-1.24-0.21-1.75-0.63c-0.51-0.42-0.93-1.02-1.26-1.8
	c-0.33-0.78-0.58-1.74-0.76-2.88c-0.18-1.14-0.27-2.4-0.27-3.77c0-1.86,0.15-3.33,0.45-4.4c0.3-1.08,0.87-2.05,1.71-2.92
	c0.84-0.87,2.31-1.83,4.4-2.88c2.1-1.05,4.55-2.02,7.37-2.92c2.82-0.9,5.89-1.63,9.21-2.2c3.33-0.57,6.75-0.85,10.29-0.85
	c6.29,0,11.67,0.62,16.13,1.84c4.46,1.23,8.13,3.12,11.01,5.66c2.88,2.55,4.97,5.83,6.29,9.84c1.32,4.01,1.98,8.78,1.98,14.29
	V141.09z M564.69,106.76h-8.63c-3.66,0-6.77,0.27-9.35,0.81c-2.58,0.54-4.67,1.35-6.29,2.43c-1.62,1.08-2.8,2.38-3.55,3.91
	c-0.75,1.53-1.12,3.28-1.12,5.26c0,3.36,1.06,5.99,3.19,7.91c2.13,1.92,5.08,2.88,8.85,2.88c3.18,0,6.1-0.81,8.76-2.43
	c2.66-1.62,5.38-3.98,8.13-7.1V106.76z"/>
<path class="st0" d="M679.72,109c0,6.11-1.14,11.47-3.41,16.09c-2.28,4.61-5.36,8.46-9.26,11.55c-3.9,3.09-8.45,5.41-13.66,6.97
	s-10.78,2.34-16.72,2.34c-4.02,0-7.74-0.33-11.19-0.99c-3.45-0.66-6.49-1.45-9.12-2.38c-2.64-0.93-4.84-1.9-6.61-2.92
	c-1.77-1.02-3.04-1.92-3.82-2.7c-0.78-0.78-1.33-1.9-1.66-3.37c-0.33-1.47-0.49-3.58-0.49-6.34c0-1.86,0.06-3.42,0.18-4.67
	c0.12-1.26,0.31-2.28,0.58-3.06c0.27-0.78,0.63-1.33,1.08-1.66c0.45-0.33,0.97-0.49,1.57-0.49c0.84,0,2.02,0.49,3.55,1.48
	c1.53,0.99,3.49,2.08,5.89,3.28c2.4,1.2,5.26,2.29,8.58,3.28c3.32,0.99,7.17,1.48,11.55,1.48c2.88,0,5.45-0.34,7.73-1.03
	c2.28-0.69,4.21-1.66,5.8-2.92c1.59-1.26,2.8-2.82,3.64-4.67c0.84-1.86,1.26-3.92,1.26-6.2c0-2.64-0.72-4.9-2.16-6.79
	c-1.44-1.89-3.31-3.56-5.62-5.03c-2.31-1.47-4.93-2.84-7.86-4.13c-2.94-1.29-5.96-2.65-9.08-4.09c-3.12-1.44-6.14-3.07-9.08-4.9
	c-2.94-1.83-5.56-4.01-7.86-6.56c-2.31-2.55-4.18-5.56-5.62-9.03c-1.44-3.47-2.16-7.64-2.16-12.49c0-5.57,1.03-10.47,3.1-14.69
	c2.07-4.22,4.85-7.73,8.36-10.51c3.5-2.79,7.64-4.87,12.4-6.25c4.76-1.38,9.81-2.07,15.14-2.07c2.75,0,5.51,0.21,8.27,0.63
	c2.76,0.42,5.33,0.99,7.73,1.71c2.39,0.72,4.52,1.53,6.38,2.43c1.86,0.9,3.09,1.65,3.68,2.25c0.6,0.6,1,1.11,1.21,1.53
	c0.21,0.42,0.39,0.97,0.54,1.66c0.15,0.69,0.25,1.56,0.31,2.61c0.06,1.05,0.09,2.35,0.09,3.91c0,1.74-0.04,3.21-0.13,4.4
	c-0.09,1.2-0.24,2.19-0.45,2.96c-0.21,0.78-0.51,1.35-0.9,1.71c-0.39,0.36-0.92,0.54-1.57,0.54c-0.66,0-1.71-0.42-3.15-1.26
	c-1.44-0.84-3.21-1.75-5.3-2.74c-2.1-0.99-4.52-1.89-7.28-2.7c-2.76-0.81-5.78-1.21-9.08-1.21c-2.58,0-4.82,0.31-6.74,0.94
	c-1.92,0.63-3.52,1.5-4.81,2.61c-1.29,1.11-2.25,2.44-2.88,4c-0.63,1.56-0.94,3.21-0.94,4.94c0,2.58,0.7,4.81,2.11,6.7
	c1.41,1.89,3.29,3.57,5.66,5.03c2.37,1.47,5.05,2.85,8.04,4.13c3,1.29,6.05,2.65,9.17,4.09c3.11,1.44,6.17,3.07,9.17,4.9
	c3,1.83,5.66,4.01,8,6.56c2.34,2.55,4.22,5.54,5.66,8.99C679,100.27,679.72,104.33,679.72,109z"/>
</svg>
